#!OML:ASF H:\ManfredETheater\Project 1\Capture day 1\Session 1\subject.ASF
:FULLY-SPECIFIED
:DEGREES
137
root 0.887955 17.669 -11.1858 -177.255 -9.1986 -181.772
lowerback 8.42396 -1.88065 -1.7936
upperback -3.48356 -2.65335 1.48706
thorax -8.26556 -1.1669 2.99244
lowerneck -18.0753 -2.41383 -3.65608
upperneck 10.5657 -2.54831 1.33869
head 6.21185 -1.27624 0.751297
rclavicle -1.125e-014 7.95139e-015
rhumerus -43.1085 -3.91783 -78.9283
rradius 66.9747
rwrist 2.53035
rhand -28.7626 3.43259
rfingers 7.12502
rthumb -2.12242 -26.5366
lclavicle -1.125e-014 7.95139e-015
lhumerus -36.5805 -7.42383 95.6787
lradius 61.1145
lwrist 2.34471
lhand -31.1239 -10.6103
lfingers 7.12502
lthumb -4.40281 19.3239
rfemur -29.1247 -0.410152 19.8666
rtibia 38.4566
rfoot -4.4398 -14.3891
rtoes -7.86432
lfemur -17.1877 -7.47843 -23.4269
ltibia 49.9617
lfoot -26.1196 0.449528
ltoes -6.38676
138
root 0.899509 17.7185 -11.2848 -176.961 -9.44432 -181.854
lowerback 8.35802 -1.89296 -1.81682
upperback -3.46525 -2.67456 1.42905
thorax -8.20768 -1.17862 2.94321
lowerneck -17.9589 -2.48872 -3.75214
upperneck 10.3658 -2.64352 1.43224
head 6.13368 -1.31838 0.78841
rclavicle 3.41133e-014 1.59028e-015
rhumerus -43.0579 -3.84199 -79.1423
rradius 66.9786
rwrist 1.95474
rhand -28.8828 3.2354
rfingers 7.12502
rthumb -2.23854 -26.7326
lclavicle 3.41133e-014 1.59028e-015
lhumerus -36.6577 -7.89709 95.7157
lradius 60.2142
lwrist 1.15807
lhand -30.88 -10.9316
lfingers 7.12502
lthumb -4.16725 19.0073
rfemur -28.7634 -0.269248 19.7714
rtibia 37.9932
rfoot -4.48932 -14.6164
rtoes -7.5938
lfemur -17.8551 -7.34253 -23.5483
ltibia 49.3421
lfoot -26.1202 0.691249
ltoes -6.22875
139
root 0.910203 17.7646 -11.3821 -176.689 -9.69825 -181.932
lowerback 8.29985 -1.91132 -1.83903
upperback -3.44257 -2.70341 1.37569
thorax -8.14904 -1.194 2.8997
lowerneck -17.8277 -2.55906 -3.84481
upperneck 10.168 -2.7338 1.52397
head 6.05387 -1.35834 0.825124
rclavicle 2.66527e-014 -2.18663e-014
rhumerus -43.0068 -3.67503 -79.3816
rradius 66.9985
rwrist 1.51237
rhand -28.9605 3.07959
rfingers 7.12502
rthumb -2.31357 -26.8876
lclavicle 2.66527e-014 -2.18663e-014
lhumerus -36.7706 -8.27863 95.7252
lradius 59.3315
lwrist -0.299158
lhand -30.6815 -11.3057
lfingers 7.12502
lthumb -3.97558 18.637
rfemur -28.4084 -0.192582 19.6899
rtibia 37.5684
rfoot -4.54073 -14.7931
rtoes -7.44938
lfemur -18.519 -7.24739 -23.6658
ltibia 48.7015
lfoot -26.1408 0.896342
ltoes -6.12107
140
root 0.920139 17.8071 -11.478 -176.44 -9.95572 -181.997
lowerback 8.24894 -1.93394 -1.85833
upperback -3.41481 -2.73704 1.32973
thorax -8.08871 -1.21173 2.86327
lowerneck -17.683 -2.62309 -3.9244
upperneck 9.97238 -2.81776 1.60466
head 5.97232 -1.39582 0.857074
rclavicle -3.41824e-014 -7.55382e-015
rhumerus -42.9476 -3.4264 -79.6387
rradius 67.0151
rwrist 1.23053
rhand -28.9973 2.99019
rfingers 7.12502
rthumb -2.34911 -26.9766
lclavicle -3.41824e-014 -7.55382e-015
lhumerus -36.9058 -8.56183 95.7067
lradius 58.4635
lwrist -1.89664
lhand -30.5165 -11.6859
lfingers 7.12502
lthumb -3.81625 18.2597
rfemur -28.0629 -0.177743 19.6326
rtibia 37.1861
rfoot -4.5538 -14.9175
rtoes -7.5758
lfemur -19.171 -7.19746 -23.7686
ltibia 48.0323
lfoot -26.1919 1.03673
ltoes -6.1418
141
root 0.92961 17.8455 -11.5726 -176.209 -10.2114 -182.049
lowerback 8.19881 -1.95734 -1.88039
upperback -3.38481 -2.77139 1.29327
thorax -8.02587 -1.22951 2.83849
lowerneck -17.5295 -2.68186 -3.99611
upperneck 9.79162 -2.89642 1.68192
head 5.89408 -1.43085 0.88734
rclavicle 5.12399e-014 -2.62396e-014
rhumerus -42.8869 -3.10464 -79.9057
rradius 67.028
rwrist 1.1016
rhand -28.9864 2.97572
rfingers 7.12502
rthumb -2.33854 -26.9912
lclavicle 5.12399e-014 -2.62396e-014
lhumerus -37.0587 -8.75424 95.6648
lradius 57.6117
lwrist -3.49097
lhand -30.3723 -12.0416
lfingers 7.12502
lthumb -3.67699 17.9064
rfemur -27.7343 -0.210641 19.6035
rtibia 36.8483
rfoot -4.54632 -15.011
rtoes -7.88464
lfemur -19.8109 -7.19518 -23.8498
ltibia 47.3315
lfoot -26.273 1.08846
ltoes -6.28006
142
root 0.938811 17.88 -11.6662 -175.995 -10.4609 -182.081
lowerback 8.14344 -1.97938 -1.90313
upperback -3.35501 -2.80321 1.26872
thorax -7.95982 -1.24587 2.82606
lowerneck -17.3633 -2.73494 -4.0476
upperneck 9.62286 -2.97031 1.74163
head 5.81711 -1.46434 0.909439
rclavicle 2.32392e-014 1.74931e-014
rhumerus -42.8271 -2.71896 -80.1773
rradius 67.034
rwrist 1.10586
rhand -28.9346 3.01582
rfingers 7.12502
rthumb -2.28858 -26.9517
lclavicle 2.32392e-014 1.74931e-014
lhumerus -37.2248 -8.86345 95.6045
lradius 56.7735
lwrist -4.95614
lhand -30.2274 -12.3262
lfingers 7.12502
lthumb -3.5371 17.6242
rfemur -27.4254 -0.277301 19.6113
rtibia 36.5544
rfoot -4.51494 -15.0889
rtoes -8.39582
lfemur -20.4395 -7.24118 -23.8968
ltibia 46.6017
lfoot -26.386 1.03827
ltoes -6.54487
143
root 0.947887 17.9106 -11.7589 -175.791 -10.6988 -182.088
lowerback 8.07671 -1.99591 -1.92427
upperback -3.32551 -2.82656 1.25704
thorax -7.88748 -1.25808 2.82455
lowerneck -17.195 -2.78794 -4.0971
upperneck 9.4751 -3.0451 1.80531
head 5.74675 -1.49799 0.932439
rclavicle -2.33013e-014 -1.78906e-014
rhumerus -42.77 -2.28585 -80.4484
rradius 67.0371
rwrist 1.21242
rhand -28.8484 3.1061
rfingers 7.12502
rthumb -2.20525 -26.8622
lclavicle -2.33013e-014 -1.78906e-014
lhumerus -37.3947 -8.90558 95.5313
lradius 55.9474
lwrist -6.20231
lhand -30.0659 -12.5042
lfingers 7.12502
lthumb -3.38114 17.4487
rfemur -27.1394 -0.36137 19.6608
rtibia 36.3016
rfoot -4.48638 -15.1698
rtoes -8.96319
lfemur -21.0614 -7.32709 -23.9013
ltibia 45.8512
lfoot -26.5174 0.884926
ltoes -6.93383
144
root 0.95686 17.9374 -11.8508 -175.599 -10.9141 -182.069
lowerback 7.99608 -2.0026 -1.94402
upperback -3.29631 -2.83567 1.25801
thorax -7.80773 -1.26336 2.83292
lowerneck -17.0287 -2.83976 -4.13414
upperneck 9.35213 -3.11986 1.86
head 5.68442 -1.53193 0.950571
rclavicle -4.31238e-014 8.34896e-015
rhumerus -42.7158 -1.8164 -80.7162
rradius 67.0402
rwrist 1.37636
rhand -28.7372 3.22356
rfingers 7.12502
rthumb -2.09793 -26.7459
lclavicle -4.31238e-014 8.34896e-015
lhumerus -37.5638 -8.89421 95.4506
lradius 55.1325
lwrist -7.14592
lhand -29.8666 -12.5644
lfingers 7.12502
lthumb -3.18864 17.3915
rfemur -26.8758 -0.443057 19.7516
rtibia 36.086
rfoot -4.47711 -15.2621
rtoes -9.55793
lfemur -21.676 -7.4415 -23.8599
ltibia 45.0921
lfoot -26.6472 0.632586
ltoes -7.40436
145
root 0.965822 17.9606 -11.9419 -175.418 -11.1027 -182.024
lowerback 7.90145 -1.99734 -1.96328
upperback -3.26897 -2.82793 1.27072
thorax -7.72238 -1.26036 2.85043
lowerneck -16.8531 -2.89067 -4.16007
upperneck 9.24137 -3.1957 1.91076
head 5.6244 -1.5664 0.965731
rclavicle -6.09523e-014 9.14409e-015
rhumerus -42.6676 -1.32518 -80.9792
rradius 67.0442
rwrist 1.5659
rhand -28.6145 3.34777
rfingers 7.12502
rthumb -1.97942 -26.6228
lclavicle -6.09523e-014 9.14409e-015
lhumerus -37.7329 -8.84018 95.3657
lradius 54.3259
lwrist -7.76131
lhand -29.6521 -12.5272
lfingers 7.12502
lthumb -2.98148 17.4317
rfemur -26.6324 -0.505852 19.8809
rtibia 35.9038
rfoot -4.50325 -15.3769
rtoes -10.1097
lfemur -22.2842 -7.56983 -23.7728
ltibia 44.3397
lfoot -26.7522 0.292153
ltoes -7.95018
